<svg xmlns="http://www.w3.org/2000/svg" xmlns:xlink="http://www.w3.org/1999/xlink" viewBox="0 0 734 1083"><defs><style>.cls-1{fill:url(#linear-gradient);}.cls-2{fill:url(#linear-gradient-2);}</style><linearGradient id="linear-gradient" x1="559.9" y1="487.07" x2="258.23" y2="1153.25" gradientUnits="userSpaceOnUse"><stop offset="0" stop-color="#7b1c8e"/><stop offset="1" stop-color="#f4068f"/></linearGradient><linearGradient id="linear-gradient-2" x1="775.72" y1="41.66" x2="300.04" y2="361.83" gradientUnits="userSpaceOnUse"><stop offset="0" stop-color="#7a0cba"/><stop offset="1" stop-color="#f4068f"/></linearGradient></defs><title>45Asset 1</title><g id="Layer_2" data-name="Layer 2"><g id="Layer_1-2" data-name="Layer 1"><path class="cls-1" d="M734,421.9V1083H58.9A489.33,489.33,0,0,1,0,849.5C0,634.52,138,451.78,330.28,385A492.82,492.82,0,0,1,734,421.9Z"/><path class="cls-2" d="M176.76,0H734V514.54A496.27,496.27,0,0,1,667.5,519,489.74,489.74,0,0,1,330.28,385C235.29,295.45,176,168.4,176,27.5Q176,13.65,176.76,0Z"/></g></g></svg>